<svg fill="none" height="512" viewBox="0 0 20 20" width="512" xmlns="http://www.w3.org/2000/svg"><path clip-rule="evenodd" d="m10 5c.2652 0 .5196.10536.7071.29289.1875.18754.2929.44189.2929.70711v3h3c.2652 0 .5196.10536.7071.29289.1875.18754.2929.44189.2929.70711 0 .2652-.1054.5196-.2929.7071s-.4419.2929-.7071.2929h-3v3c0 .2652-.1054.5196-.2929.7071s-.4419.2929-.7071.2929c-.26522 0-.51957-.1054-.70711-.2929-.18753-.1875-.29289-.4419-.29289-.7071v-3h-3c-.26522 0-.51957-.1054-.70711-.2929-.18753-.1875-.29289-.4419-.29289-.7071 0-.26522.10536-.51957.29289-.70711.18754-.18753.44189-.29289.70711-.29289h3v-3c0-.26522.10536-.51957.29289-.70711.18754-.18753.44189-.29289.70711-.29289z" fill="rgb(255,255,255)" fill-rule="evenodd"/></svg>